<svg width="1114" height="157" viewBox="0 0 1114 157" fill="none" xmlns="http://www.w3.org/2000/svg">
<g clip-path="url(#clip0_2050_84)">
<path d="M634.764 153.96H655.063V119.409L634.764 79.0125V153.96ZM608.785 153.96H629.553V68.6706L608.785 27.3387V153.96ZM582.807 3.03956V146.19L586.232 153.96H604.062V17.914L596.58 3.03956H582.807ZM556.829 87.358L558.559 91.261H556.829V135.884H578.3L578.57 136.478V3.03956H556.847V87.376L556.829 87.358ZM686.738 153.942H706.082V3.03956H686.738V153.96V153.942ZM660.76 153.942H672.442L660.76 130.704V153.942ZM712.716 153.942H731.592V3.03956H712.716V153.96V153.942ZM674.587 153.942H680.573V3.03956H674.587V153.96V153.942ZM530.85 135.884H553.061V91.261H530.85V135.884ZM450.284 3.03956H242.494V54.9832H307.755V153.978H385.023V54.9832H450.284V3.03956ZM124.843 -8.03825e-05H117.722C13.6291 -8.03825e-05 0 43.4002 0 75.0556V81.1349C0 112.574 14.4404 157 117.722 157H124.843C225.079 157 237.879 114.211 237.879 93.0956V87.8257H159.601C158.988 91.4768 155.725 108.51 120.156 108.51C84.5871 108.51 79.5032 91.6747 79.5032 78.6888V76.2607C79.5032 63.0769 85.5966 48.0586 120.156 48.0586C154.716 48.0586 158.574 63.8863 159.601 67.1238H237.879V64.0841C237.879 41.7635 225.061 -0.0180664 124.843 -0.0180664V-8.03825e-05ZM530.833 70.7749L540.045 49.4795L553.025 78.8327V3.03956H530.814V70.7749H530.833ZM451.023 153.96V81.2428L416.626 153.978H451.023V153.96ZM738.677 153.96H751.837V112.79H757.065V67.1417H751.837V47.2672H757.065V3.03956H738.677V153.96ZM452.898 153.96H476.532V27.3027L452.898 77.2859V153.96ZM504.854 135.902H527.533V91.279H521.963L527.533 78.401V3.03956H504.854V135.902ZM478.876 22.3386V153.96H494.704L502.024 137.287V3.03956H487.998L478.876 22.3386ZM1027.97 153.96H1040.97V3.03956H1027.97V153.96ZM1002.28 153.96H1015.75V3.03956H1002.28V153.96ZM976.591 153.96H990.545V3.03956H976.591V153.96ZM950.901 54.9652H965.324V3.03956H950.901V54.9832V54.9652ZM1105.06 3.03956V54.9832H1114V3.03956H1105.06ZM764.655 112.772H782.575V67.1238H764.655V112.772ZM1079.35 54.9652H1091.41V3.03956H1079.35V54.9832V54.9652ZM1053.66 54.9652H1066.19V3.03956H1053.66V54.9832V54.9652ZM925.175 54.9652H940.067V3.03956H925.175V54.9832V54.9652ZM790.651 47.2492H805.939C806.696 47.2492 807.417 47.2852 808.084 47.3211V3.03956H790.651V47.2672V47.2492ZM816.629 3.03956V50.0191C818.757 51.7817 819.532 54.2278 819.532 56.9976V57.4113C819.532 59.9653 818.757 62.4294 816.629 64.228V112.79H824.832C827.879 112.79 830.763 112.7 833.576 112.574V3.2374C830.763 3.1115 827.861 3.03956 824.832 3.03956H816.629ZM790.651 67.1417V112.79H808.084V67.0698C807.399 67.1238 806.696 67.1417 805.939 67.1417H790.651ZM764.673 47.2672H782.593V3.03956H764.673V47.2672ZM842.608 111.891C848.683 111.243 854.163 110.254 859.085 108.959V6.60079C854.163 5.39573 848.683 4.47844 842.608 3.8849V111.891ZM893.14 85.4155C897.412 77.7715 899.161 69.0303 899.161 59.8934V54.6235C899.161 45.3607 897.449 36.6734 893.14 29.1553V85.4155ZM868.586 105.83C875.112 103.186 880.376 99.8763 884.595 96.0453V18.7773C880.394 15.1262 875.13 11.9966 868.586 9.51453V105.83ZM908.464 54.9832H914.827V3.03956H908.464V54.9832Z" fill="white"/>
</g>
<defs>
<clipPath id="clip0_2050_84">
<rect width="1114" height="157" fill="white"/>
</clipPath>
</defs>
</svg>
