<svg xmlns="http://www.w3.org/2000/svg" fill="none" viewBox="0 0 190 32"><path fill="#1C1C1C" fill-rule="evenodd" d="M46.49 17.45c-4.03.64-6.93 4.12-6.54 7.85.2 1.9.96 3.4 2.41 4.7 2.88 2.62 7.66 2.66 10.49.1.42-.39.77-.74.77-.8 0-.07-.8-1.04-2.13-2.57-.03-.02-.37.25-.76.6a4.14 4.14 0 0 1-3.12 1.19c-.68 0-1.15-.08-1.51-.24a3.87 3.87 0 0 1-1.33-5.98c1.55-1.77 4.14-1.78 6.13-.03l.44.39.51-.58 1.14-1.3.63-.73-.78-.7a8.49 8.49 0 0 0-3.2-1.74c-.84-.2-2.4-.28-3.15-.16Zm8.8 7.6v6.81H58.55l2.89-3.67 2.88-3.68.04 3.74.03 3.74H68.25V18.23h-1.7l-1.7.01-2.83 3.62-2.82 3.62-.03-3.63-.04-3.62H55.28v6.82Zm16.04.06V32h3.98v-5.14h5l.04 2.54.03 2.54 1.96.03 1.96.04V18.23h-3.98V23.12H75.3V18.23h-3.98v6.88Zm15.4 0V32h10.53v-3.34h-6.8v-1.93h5.13V23.5h-5.13v-1.92l3.3-.04 3.3-.03.04-1.64.04-1.64h-10.4v6.88Zm12.84 0v6.88h3.72V27.88h1.54c.84 0 1.84-.07 2.21-.15a4.82 4.82 0 0 0 3.83-3.93 4.8 4.8 0 0 0-2.67-5.09l-.86-.42-3.88-.04-3.89-.04v6.9Zm13.74 0V32h3.72V21.84l2.98-.04 2.99-.03.03-1.77.04-1.77h-9.76v6.88Zm11.3-.06v6.81h3.29l2.87-3.66 2.88-3.67.03 3.73.04 3.73H137.57V18.22l-1.7.04-1.7.03-2.82 3.6-2.83 3.6-.04-3.63-.03-3.63H124.6v6.82Zm18.33-6.58c-.77.25-1.32.58-2.02 1.23a4.53 4.53 0 0 0-.97 5.17 6 6 0 0 0 1.76 1.91c.19.12.1.32-.66 1.68L139.64 31l-.55 1h2.03l2.03-.01 1.1-2.12 1.08-2.12h1.99l.03 2.09.04 2.09 1.95.03 1.96.04V18.23h-3.82c-3.31.01-3.91.04-4.54.24Zm-36.7 3.3c1.02.42 1.18 1.73.28 2.34-.39.26-.6.3-1.77.3h-1.33v-2.84h1.15c.76 0 1.33.07 1.66.2Zm41.08 1.3v1.36l-1.47-.05c-1.24-.04-1.52-.08-1.82-.31-.56-.41-.74-.87-.55-1.42.25-.76.71-.95 2.4-.95h1.44v1.37ZM129.14.34a7.78 7.78 0 0 0-4.78 4.46c-1.92 5.63 3.33 10.97 9.27 9.44a8.32 8.32 0 0 0 3.7-2.07c.26-.3.13-.55-.79-1.62l-1.08-1.27-1.14.79c-1.9 1.3-3.7 1.34-5.12.1-1.03-.91-1.37-1.82-1.24-3.25.3-3 3.42-4.28 6.23-2.53l1.2.75 1.1-1.24 1.1-1.23-.98-.87a8.15 8.15 0 0 0-7.47-1.46ZM40.1.94c0 .14 1.01 2.22 2.25 4.61l2.24 4.37-.52.53c-.42.42-.77.53-1.67.52l-1.15-.02V14.3l1.02.16a4.65 4.65 0 0 0 4.57-1.74c.6-.7 5.05-9.58 5.87-11.73.09-.21-.4-.29-1.96-.29h-2.08l-.68 1.8L47 5.14c-.17.48-.37.87-.45.87-.07 0-.65-1.17-1.28-2.6L44.12.82 42.11.75c-1.34-.04-2 .02-2 .19Zm14.18 6.7v6.92h3.9l.07-2.6.06-2.6 2.48-.06 2.48-.07v5.33h3.91V.7h-3.91v4.85H58.2V.7h-3.92v6.93Zm15.32-.12v6.81h1.67l1.67-.02 2.77-3.56 2.76-3.55.07 3.69.06 3.7 1.9-.08 1.9-.06V.82L80.77.76 79.17.69l-2.89 3.7-2.88 3.7-.06-3.69-.06-3.7H69.6v6.82Zm15.21.14v6.95l4.1-.09c4.53-.1 4.94-.2 6.23-1.67.85-.97 1.11-2.11.74-3.23-.26-.81-1.62-2.22-2.15-2.22-.15 0 .05-.26.46-.58 2.12-1.68 1.21-4.93-1.6-5.77C91.77.81 90.38.7 88.1.7h-3.3v6.96Zm13.6-.03v6.93H108.78V11.1h-6.68V9.25h5.07V6.02h-5.07V4.18l3.28-.06 3.29-.07V.82l-5.13-.06L98.4.7v6.93Zm12.68.01v6.94l1.9-.07 1.9-.06.06-2.02.07-2.02 1.78-.01c2.06 0 3.23-.44 4.36-1.64a4.04 4.04 0 0 0 1.22-3.23c0-2.1-1.53-4.05-3.59-4.57-.55-.14-2.5-.26-4.35-.26h-3.35v6.94Zm28.11-.12v6.81h1.67l1.67-.01 2.77-3.56 2.77-3.56.06 3.68.06 3.68h3.91V.7h-3.34L146 4.28a42.87 42.87 0 0 1-2.94 3.58c-.1 0-.17-1.6-.17-3.58V.7H139.2v6.82Zm14.62-5.08v1.73h3.92v10.4h3.68V4.16H165.11V.7h-11.29v1.74Zm12.9 5.19v6.93H177.1V11.1h-6.68V9.25h5.07V6.02h-5.07V4.17h6.71l-.07-1.68-.07-1.67-5.13-.06-5.13-.06v6.93Zm11.99-5.2v1.74h3.68v10.41l1.9-.07 1.9-.06.07-5.14.06-5.14H190V.7h-11.29v1.74ZM91.2 3.99c.45.44.35 1.53-.16 1.8-.25.13-.92.24-1.5.24H88.5V3.7h1.22c.67 0 1.35.12 1.5.27Zm26.74.55c.61.43.67 1.39.13 1.99-.29.32-.72.42-1.73.42H115V4.17h1.22c.73 0 1.42.14 1.73.36ZM91.67 9.15c.57.4.7 1.44.24 1.9-.16.16-.93.28-1.84.28H88.5V8.79h1.33c.83 0 1.52.13 1.84.36Z" clip-rule="evenodd"/><path fill="#ED131C" d="M0 0v32h31.93V0H0Zm27.37 27.43H4.57V4.57h22.8v22.86Z"/><path fill="#ED131C" d="m19.65 19.2-3.3-3.2 3.3-3.12V6.56L9.82 16l9.83 9.44V19.2Z"/></svg>