<svg width="397.000000" height="49.686970" viewBox="0 0 397 49.687" fill="none" xmlns="http://www.w3.org/2000/svg" xmlns:xlink="http://www.w3.org/1999/xlink">
	<desc>
			Created with Pixso.
	</desc>
	<defs/>
	<path id="Vector" d="M15.65 41.1C15.27 40.82 14.99 40.44 14.85 40C14.7 39.56 14.7 39.08 14.84 38.64L15.31 36.74C15.39 36.41 15.54 36.09 15.75 35.82C15.96 35.55 16.23 35.32 16.53 35.16L18.05 34.37C18.98 33.89 19.72 33.11 20.16 32.15C20.6 31.2 20.71 30.13 20.47 29.11L20.45 29.01C20.17 27.87 19.47 26.87 18.5 26.21C17.52 25.56 16.33 25.29 15.16 25.46L13.47 25.7C13.12 25.75 12.77 25.72 12.44 25.63C12.1 25.53 11.79 25.37 11.53 25.14L10.03 23.88C9.66 23.6 9.39 23.22 9.24 22.78C9.1 22.34 9.1 21.86 9.24 21.42C9.56 20.45 9.55 19.39 9.21 18.42C8.88 17.45 8.24 16.62 7.38 16.04C6.53 15.47 5.51 15.19 4.48 15.24C3.45 15.3 2.47 15.69 1.68 16.35C0.9 17.01 0.35 17.9 0.12 18.9C-0.12 19.9 -0.01 20.95 0.41 21.89C0.83 22.83 1.54 23.6 2.44 24.1C3.34 24.59 4.38 24.78 5.4 24.64C5.57 24.61 5.73 24.58 5.89 24.54L6.33 24.46C6.7 24.38 7.07 24.4 7.43 24.49C7.79 24.58 8.13 24.76 8.41 25L10.44 26.75C10.75 27.03 10.99 27.37 11.13 27.76C11.28 28.14 11.32 28.56 11.26 28.97L11.21 29.28L11.16 29.55L11.16 29.57C11.1 30.13 11.13 30.7 11.27 31.25C11.27 31.29 11.27 31.32 11.29 31.35L11.29 31.38C11.49 32.13 11.87 32.81 12.39 33.38C12.46 33.45 12.52 33.51 12.59 33.57L12.81 33.79C13.1 34.09 13.31 34.45 13.43 34.85C13.54 35.25 13.55 35.68 13.45 36.08L12.83 38.68C12.75 39.04 12.58 39.38 12.34 39.66C12.11 39.95 11.81 40.18 11.47 40.33L11.09 40.51C10.94 40.57 10.78 40.64 10.64 40.72C9.94 41.08 9.35 41.61 8.92 42.26C8.2 43.29 7.92 44.56 8.14 45.79C8.36 47.02 9.07 48.12 10.1 48.83C11.13 49.55 12.4 49.83 13.64 49.61C14.87 49.39 15.97 48.69 16.69 47.66C17.11 47.08 17.4 46.41 17.52 45.7C17.55 45.54 17.58 45.38 17.59 45.22L17.64 44.8C17.61 44.08 17.42 43.36 17.07 42.72C16.73 42.08 16.24 41.52 15.65 41.1Z" fill="#C8C9CA" fill-opacity="1.000000" fill-rule="nonzero"/>
	<path id="Vector" d="M51.83 18.51C51.58 17.75 51.14 17.06 50.55 16.52C49.97 15.97 49.25 15.58 48.47 15.39C47.69 15.2 46.87 15.2 46.1 15.41C45.32 15.62 44.61 16.02 44.03 16.58C43.91 16.69 43.79 16.8 43.68 16.93L43.39 17.23C43.14 17.51 42.83 17.72 42.49 17.85C42.14 17.99 41.77 18.05 41.4 18.02L38.72 17.8C38.31 17.77 37.91 17.63 37.56 17.4C37.21 17.16 36.93 16.85 36.74 16.48L36.6 16.2C36.56 16.12 36.52 16.04 36.47 15.96L36.47 15.94C36.19 15.44 35.83 15 35.39 14.64L35.32 14.58L35.29 14.55C34.69 14.06 33.98 13.73 33.22 13.58L33.2 13.58L32.93 13.53L32.61 13.51C32.2 13.44 31.81 13.27 31.49 13.02C31.16 12.76 30.9 12.42 30.74 12.04L29.71 9.59C29.56 9.24 29.5 8.87 29.52 8.5C29.54 8.13 29.65 7.77 29.83 7.45L30.04 7.1C30.13 6.95 30.21 6.81 30.28 6.66C30.6 6.02 30.77 5.31 30.77 4.59C30.73 3.36 30.22 2.19 29.33 1.33C28.45 0.48 27.26 0 26.03 0C24.79 0 23.61 0.48 22.72 1.33C21.84 2.19 21.32 3.36 21.29 4.59C21.29 5.31 21.45 6.02 21.77 6.66C21.85 6.81 21.93 6.95 22.02 7.1L22.22 7.45C22.41 7.77 22.51 8.13 22.53 8.5C22.56 8.87 22.49 9.24 22.35 9.59L21.32 12.04C21.16 12.42 20.9 12.76 20.58 13.01C20.25 13.27 19.87 13.44 19.46 13.51L19.15 13.56L18.88 13.6L18.85 13.6C18.29 13.71 17.76 13.93 17.28 14.23L17.21 14.27C17.19 14.28 17.18 14.29 17.17 14.3C16.52 14.72 15.98 15.29 15.6 15.97L15.6 15.99C15.56 16.07 15.52 16.15 15.48 16.23C13.56 20.34 17.76 22.62 18.29 22.76C18.94 22.96 19.62 23.02 20.3 22.94C20.97 22.86 21.62 22.65 22.21 22.31L22.3 22.26C23.3 21.64 24.03 20.67 24.35 19.53C24.67 18.4 24.56 17.19 24.03 16.14L23.26 14.6C23.11 14.29 23.02 13.95 23.01 13.6C23 13.25 23.06 12.91 23.19 12.59L23.92 10.78C24.07 10.34 24.35 9.96 24.73 9.69C25.1 9.42 25.56 9.28 26.02 9.28C26.48 9.28 26.93 9.42 27.31 9.69C27.69 9.96 27.97 10.34 28.12 10.78L28.86 12.59C28.99 12.91 29.06 13.25 29.04 13.6C29.03 13.95 28.95 14.29 28.79 14.6L28.04 16.13C27.57 17.07 27.43 18.14 27.64 19.17C27.85 20.2 28.4 21.13 29.2 21.81L29.27 21.88C29.89 22.4 30.62 22.75 31.41 22.9C32.2 23.05 33.02 23 33.78 22.76C34.48 22.53 35.12 22.15 35.64 21.63L36.87 20.44C37.12 20.2 37.42 20.01 37.74 19.88C38.07 19.76 38.42 19.71 38.77 19.74L40.72 19.89C41.19 19.89 41.64 20.04 42.01 20.31C42.38 20.59 42.66 20.97 42.81 21.41C43.11 22.32 43.87 24.09 46.63 24.62C47.43 24.73 48.24 24.64 48.99 24.35C49.74 24.07 50.41 23.59 50.93 22.98C51.44 22.37 51.8 21.63 51.95 20.85C52.1 20.06 52.05 19.25 51.81 18.48L51.83 18.51Z" fill="#EC1D35" fill-opacity="1.000000" fill-rule="nonzero"/>
	<path id="Vector" d="M34.73 25.64C34.09 25.86 33.5 26.21 33 26.67C32.5 27.13 32.1 27.68 31.83 28.3C31.83 28.33 31.8 28.36 31.79 28.4C31.35 29.49 31.33 30.7 31.74 31.8C32.15 32.9 32.96 33.82 34 34.36L35.52 35.15C35.82 35.31 36.09 35.54 36.31 35.81C36.52 36.08 36.67 36.4 36.76 36.74L37.22 38.64C37.36 39.08 37.36 39.55 37.22 39.99C37.07 40.43 36.79 40.82 36.42 41.09C36.04 41.36 35.59 41.51 35.12 41.51C34.66 41.51 34.21 41.36 33.83 41.09L32.16 40.07C31.86 39.89 31.61 39.65 31.41 39.36C31.21 39.08 31.08 38.75 31.02 38.41L30.73 36.73C30.56 35.7 30.04 34.75 29.27 34.03C28.49 33.32 27.5 32.89 26.45 32.8L26.35 32.8C25.17 32.72 24 33.07 23.08 33.8C22.15 34.53 21.53 35.58 21.34 36.74C20.67 40.73 24.27 42.04 25.67 42.21L25.8 42.21C26.57 42.26 27.34 42.11 28.04 41.79L28.07 41.79L28.32 41.67L28.59 41.53C28.97 41.34 29.38 41.25 29.8 41.27C30.21 41.28 30.62 41.4 30.98 41.62L33.27 43.02C33.58 43.21 33.85 43.48 34.05 43.79C34.25 44.1 34.38 44.46 34.42 44.82L34.47 45.24C34.48 45.4 34.5 45.57 34.53 45.73C34.67 46.52 35.01 47.27 35.51 47.89C36.02 48.51 36.67 49 37.42 49.3C38.16 49.6 38.98 49.71 39.77 49.61C40.57 49.52 41.33 49.22 41.99 48.75C42.64 48.28 43.16 47.65 43.5 46.92C43.84 46.19 43.98 45.39 43.93 44.59C43.87 43.79 43.61 43.02 43.17 42.35C42.73 41.67 42.13 41.12 41.42 40.75C41.27 40.67 41.12 40.6 40.96 40.54L40.58 40.37C40.24 40.21 39.95 39.98 39.71 39.7C39.47 39.41 39.31 39.07 39.22 38.71L38.6 36.11C38.51 35.71 38.52 35.29 38.63 34.89C38.74 34.49 38.95 34.12 39.25 33.83L39.47 33.6C39.53 33.54 39.6 33.48 39.66 33.41L39.66 33.39C40.05 32.97 40.36 32.49 40.57 31.97L40.6 31.89L40.6 31.85C40.88 31.13 40.98 30.35 40.89 29.59L40.89 29.56C40.26 24.99 35.75 25.26 34.73 25.64Z" fill="#402FFF" fill-opacity="1.000000" fill-rule="nonzero"/>
	<path id="Vector" d="M74.45 41.93L74.45 38.2L69.87 38.2C68.83 38.18 67.81 37.88 66.92 37.35C65.93 36.77 64.19 34.85 63.65 34.09C63.12 33.27 62.85 32.3 62.89 31.33L62.89 17.89C62.85 16.89 63.12 15.92 63.65 15.08C64.19 14.38 65.93 12.45 66.92 11.86C67.81 11.33 68.83 11.04 69.87 11.02L74.45 11.02L74.45 7.4L79.42 7.4L79.42 11.01L83.88 11.01C84.92 11.04 85.94 11.33 86.84 11.86C87.82 12.44 89.53 14.36 90.11 15.07C90.64 15.91 90.91 16.89 90.87 17.88L90.87 31.32C90.9 32.3 90.64 33.26 90.11 34.09C89.53 34.85 87.82 36.77 86.84 37.34C85.94 37.87 84.92 38.16 83.88 38.19L79.42 38.19L79.42 41.92L74.45 41.93ZM69.98 32.98L74.45 32.98L74.45 16.23L70.03 16.23C69.4 16.72 68.84 17.29 68.37 17.93L68.37 31.33C68.83 31.95 69.37 32.51 69.98 32.98ZM85.41 17.9C84.98 17.25 84.43 16.69 83.79 16.24L79.42 16.24L79.42 32.99L83.75 32.99C84.36 32.5 84.91 31.94 85.41 31.34L85.41 17.9Z" fill="#1B1C21" fill-opacity="1.000000" fill-rule="nonzero"/>
	<path id="Vector" d="M114.55 19.05C114.06 17.89 113.23 16.92 112.17 16.24L104.22 16.24C103.54 16.74 102.95 17.35 102.46 18.03L102.46 31.33C102.91 32.01 103.51 32.58 104.22 32.98L112.26 32.98C113.23 32.28 114.01 31.37 114.55 30.31L119.65 31.56C119.28 32.58 118.77 33.54 118.13 34.41C117.05 35.93 114.96 38.21 112.22 38.21L103.99 38.21C102.95 38.18 101.93 37.89 101.04 37.36C100.1 36.78 98.39 34.99 97.77 34.15C97.26 33.31 97 32.35 97 31.38L97 17.84C96.96 16.86 97.23 15.89 97.77 15.07C98.3 14.37 100.05 12.48 101.08 11.86C101.97 11.35 102.97 11.06 103.99 11.01L112.22 11.01C114.95 11.01 117.02 13.29 118.09 14.76C118.72 15.63 119.24 16.59 119.61 17.6L114.55 19.05Z" fill="#1B1C21" fill-opacity="1.000000" fill-rule="nonzero"/>
	<path id="Vector" d="M141.85 37.98L141.85 16.41L130.53 16.41L130.53 37.98L125.07 37.98L125.07 12.69C125.07 12.3 125.23 11.92 125.51 11.64C125.79 11.36 126.17 11.21 126.57 11.2L145.82 11.2C146.22 11.21 146.6 11.36 146.88 11.64C147.16 11.92 147.31 12.3 147.32 12.69L147.32 38L141.85 37.98Z" fill="#1B1C21" fill-opacity="1.000000" fill-rule="nonzero"/>
	<path id="федерация спортивного программирования России" d="M161.43 23.72L161.43 20.57Q159.99 20.57 159.07 19.87Q158.92 19.76 158.78 19.62Q158.6 19.43 158.44 19.22L158.44 19.22Q157.82 18.34 157.82 17.01L157.82 14.45Q157.82 13.16 158.43 12.29L158.43 12.29Q158.59 12.07 158.78 11.88Q158.94 11.72 159.12 11.59Q160.04 10.93 161.43 10.93L161.43 7.78L162.93 7.78L162.93 10.93Q164.37 10.93 165.29 11.63L165.29 11.63Q165.44 11.74 165.58 11.88Q165.77 12.07 165.93 12.29Q166.54 13.16 166.54 14.45L166.54 17.01C166.54 18.11 166.22 18.98 165.58 19.62Q165.44 19.76 165.29 19.87L165.29 19.87Q164.37 20.57 162.93 20.57L162.93 23.72L161.43 23.72ZM172.68 20.74C171.91 20.74 171.24 20.59 170.65 20.29C170.08 19.97 169.64 19.54 169.32 18.99Q168.85 18.15 168.85 17.03L168.85 14.45C168.85 13.72 169.01 13.08 169.32 12.53C169.64 11.97 170.08 11.54 170.65 11.23Q171.53 10.76 172.68 10.76C173.46 10.76 174.13 10.92 174.7 11.23Q175.2 11.49 175.57 11.88Q175.85 12.17 176.05 12.53Q176.52 13.35 176.52 14.45L176.52 16.17L170.55 16.17L170.55 17.03C170.55 17.78 170.73 18.34 171.09 18.73C171.46 19.11 172 19.31 172.68 19.31C173.27 19.31 173.74 19.21 174.09 19.01C174.44 18.8 174.66 18.49 174.75 18.08L176.47 18.08C176.35 18.9 175.94 19.55 175.24 20.02C174.55 20.5 173.7 20.74 172.68 20.74ZM193.69 20.74C192.92 20.74 192.25 20.59 191.66 20.29C191.09 19.97 190.65 19.54 190.33 18.99C190.02 18.43 189.86 17.78 189.86 17.03L189.86 14.45C189.86 13.72 190.02 13.08 190.33 12.53C190.65 11.97 191.09 11.54 191.66 11.23Q192.54 10.76 193.69 10.76C194.47 10.76 195.14 10.92 195.71 11.23C196.29 11.54 196.74 11.97 197.06 12.53C197.37 13.08 197.53 13.72 197.53 14.45L197.53 16.17L191.56 16.17L191.56 17.03C191.56 17.78 191.74 18.34 192.1 18.73C192.47 19.11 193.01 19.31 193.69 19.31C194.28 19.31 194.75 19.21 195.1 19.01Q195.34 18.86 195.5 18.66Q195.69 18.41 195.76 18.08L197.48 18.08C197.36 18.9 196.95 19.55 196.25 20.02C195.56 20.5 194.71 20.74 193.69 20.74ZM200.5 23.72L200.5 10.93L202.22 10.93L202.22 12.74L202.24 12.74Q202.36 12.11 202.71 11.66Q202.87 11.45 203.1 11.28C203.56 10.93 204.15 10.76 204.86 10.76C205.82 10.76 206.59 11.09 207.18 11.74C207.76 12.38 208.05 13.26 208.05 14.37L208.05 17.12C208.05 18.24 207.76 19.13 207.18 19.78C206.6 20.42 205.83 20.74 204.86 20.74Q203.89 20.74 203.22 20.29Q203.17 20.26 203.11 20.22C202.65 19.86 202.35 19.36 202.24 18.75L202.2 18.75L202.24 20.94L202.24 23.72L200.5 23.72ZM213.81 20.74C212.79 20.74 211.99 20.49 211.41 19.97C210.84 19.45 210.55 18.74 210.55 17.85C210.55 16.94 210.85 16.23 211.44 15.72C212.05 15.19 212.88 14.93 213.91 14.93L216.72 14.93L216.72 14.02C216.72 13.46 216.54 13.02 216.19 12.72C215.85 12.41 215.38 12.25 214.77 12.25C214.22 12.25 213.76 12.37 213.39 12.62Q213.04 12.84 212.86 13.17Q212.77 13.34 212.72 13.54L211.02 13.54C211.07 12.98 211.26 12.5 211.6 12.09C211.94 11.67 212.39 11.34 212.93 11.11C213.48 10.88 214.1 10.76 214.79 10.76Q216.37 10.76 217.33 11.53Q217.39 11.58 217.45 11.63C218.12 12.21 218.45 12.98 218.45 13.96L218.45 20.57L216.75 20.57L216.75 18.78L216.74 18.78C216.65 19.39 216.35 19.87 215.82 20.22C215.3 20.57 214.63 20.74 213.81 20.74ZM267.3 20.74C266.12 20.74 265.17 20.42 264.46 19.76C263.75 19.1 263.39 18.19 263.39 17.03L263.39 14.45C263.39 13.31 263.75 12.41 264.46 11.76C265.17 11.09 266.12 10.76 267.3 10.76C268.43 10.76 269.34 11.06 270.03 11.67C270.72 12.27 271.08 13.08 271.12 14.12L269.4 14.12C269.36 13.54 269.16 13.09 268.79 12.77C268.41 12.45 267.92 12.28 267.3 12.28C266.63 12.28 266.1 12.48 265.7 12.86C265.32 13.23 265.12 13.77 265.12 14.45L265.12 17.03C265.12 17.73 265.32 18.27 265.7 18.64C266.1 19.01 266.63 19.2 267.3 19.2C267.92 19.2 268.41 19.04 268.79 18.73C269.16 18.41 269.36 17.96 269.4 17.38L271.12 17.38C271.08 18.42 270.72 19.24 270.03 19.85C269.34 20.44 268.43 20.74 267.3 20.74ZM295.04 23.72L295.04 10.93L296.76 10.93L296.76 12.74L296.78 12.74C296.89 12.12 297.18 11.63 297.64 11.28C298.1 10.93 298.69 10.76 299.41 10.76C300.36 10.76 301.13 11.09 301.72 11.74Q301.78 11.81 301.84 11.88Q302.59 12.82 302.59 14.37L302.59 17.12Q302.59 18.69 301.83 19.65L301.82 19.65Q301.77 19.72 301.72 19.78C301.15 20.42 300.38 20.74 299.41 20.74C298.7 20.74 298.12 20.57 297.65 20.22C297.19 19.86 296.89 19.36 296.78 18.75L296.74 18.75L296.78 20.94L296.78 23.72L295.04 23.72ZM288.24 20.71C287.06 20.71 286.12 20.38 285.43 19.73C284.74 19.06 284.4 18.16 284.4 17.01L284.4 14.49C284.4 13.35 284.74 12.45 285.43 11.79C286.12 11.13 287.06 10.79 288.24 10.79C289.42 10.79 290.35 11.13 291.04 11.79C291.73 12.45 292.07 13.34 292.07 14.47L292.07 17.01C292.07 18.16 291.73 19.06 291.04 19.73C290.35 20.38 289.42 20.71 288.24 20.71ZM351.26 20.71Q349.73 20.71 348.75 19.97L348.75 19.97Q348.6 19.86 348.46 19.73C347.77 19.06 347.43 18.16 347.43 17.01L347.43 14.49C347.43 13.35 347.77 12.45 348.46 11.79Q348.62 11.64 348.79 11.51L348.79 11.51Q349.77 10.79 351.26 10.79C352.44 10.79 353.38 11.13 354.07 11.79Q354.3 12.02 354.49 12.28Q355.1 13.16 355.1 14.47L355.1 17.01Q355.1 18.35 354.47 19.25L354.47 19.25Q354.3 19.51 354.07 19.73C353.38 20.38 352.44 20.71 351.26 20.71ZM372.27 20.71C371.09 20.71 370.16 20.38 369.47 19.73C368.78 19.06 368.44 18.16 368.44 17.01L368.44 14.49C368.44 13.35 368.78 12.45 369.47 11.79C370.16 11.13 371.09 10.79 372.27 10.79C373.45 10.79 374.39 11.13 375.08 11.79C375.76 12.45 376.11 13.34 376.11 14.47L376.11 17.01C376.11 18.16 375.76 19.06 375.08 19.73C374.39 20.38 373.45 20.71 372.27 20.71ZM178.44 23.02L178.44 19.08L179.2 19.08C179.38 18.88 179.58 18.5 179.79 17.94C180.01 17.37 180.14 16.64 180.16 15.77L180.26 10.93L186.66 10.93L186.66 19.08L187.87 19.08L187.87 23.02L186.31 23.02L186.31 20.57L180 20.57L180 23.02L178.44 23.02ZM228.33 23.02L228.33 20.57L221.49 20.57L221.49 10.93L223.23 10.93L223.23 19.01L226.84 19.01L226.84 10.93L228.57 10.93L228.57 19.01L229.89 19.01L229.89 23.02L228.33 23.02ZM232 20.57L232 10.93L233.63 10.93L233.63 16.05Q233.63 16.56 233.59 17.13Q233.56 17.69 233.51 18.24C233.47 18.59 233.44 18.89 233.42 19.13L237.24 10.93L239.43 10.93L239.43 20.57L237.8 20.57L237.8 15.44C237.8 15.11 237.81 14.76 237.83 14.38C237.86 14 237.88 13.64 237.9 13.3C237.94 12.95 237.97 12.65 238.01 12.41L234.19 20.57L232 20.57ZM242.07 20.57L244.45 16.91C243.76 16.73 243.22 16.39 242.82 15.87C242.42 15.35 242.22 14.73 242.22 14.02C242.22 13.07 242.54 12.32 243.17 11.77C243.81 11.21 244.69 10.93 245.8 10.93L249.93 10.93L249.93 20.57L248.2 20.57L248.2 17.03L246.22 17.03L244.06 20.57L242.07 20.57ZM274.02 20.57L274.02 10.93L281.45 10.93L281.45 20.57L279.71 20.57L279.71 12.51L275.75 12.51L275.75 20.57L274.02 20.57ZM308.39 20.57L308.39 12.48L304.93 12.48L304.93 10.93L313.57 10.93L313.57 12.48L310.12 12.48L310.12 20.57L308.39 20.57ZM316.04 20.57L316.04 10.93L317.66 10.93L317.66 16.05C317.66 16.39 317.65 16.75 317.63 17.13Q317.59 17.69 317.54 18.24C317.51 18.59 317.48 18.89 317.45 19.13L321.27 10.93L323.46 10.93L323.46 20.57L321.83 20.57L321.83 15.44C321.83 15.11 321.85 14.76 321.87 14.38C321.89 14 321.92 13.64 321.94 13.3C321.97 12.95 322.01 12.65 322.04 12.41L318.22 20.57L316.04 20.57ZM326.54 20.57L326.54 10.93L330.73 10.93C331.71 10.93 332.48 11.16 333.06 11.6C333.64 12.04 333.93 12.64 333.93 13.39C333.93 13.97 333.75 14.44 333.37 14.8C333 15.17 332.49 15.36 331.85 15.38L331.85 15.45C332.58 15.48 333.17 15.7 333.6 16.14Q333.78 16.31 333.92 16.52L333.92 16.52Q334.27 17.08 334.27 17.85C334.27 18.68 333.96 19.34 333.35 19.83C332.75 20.32 331.92 20.57 330.88 20.57L326.54 20.57ZM337.04 20.57L337.04 10.93L338.78 10.93L338.78 14.84L342.74 14.84L342.74 10.93L344.47 10.93L344.47 20.57L342.74 20.57L342.74 16.42L338.78 16.42L338.78 20.57L337.04 20.57ZM358.75 20.57L358.75 10.93L365.74 10.93L365.74 12.53L360.49 12.53L360.49 20.57L358.75 20.57ZM170.55 14.45L170.55 14.93L174.84 14.93L174.84 14.45C174.84 13.72 174.65 13.16 174.28 12.77Q174.21 12.7 174.13 12.63Q173.6 12.18 172.68 12.18C171.98 12.18 171.45 12.38 171.09 12.77Q170.55 13.35 170.55 14.45ZM191.56 14.45L191.56 14.93L195.85 14.93L195.85 14.45C195.85 13.72 195.66 13.16 195.29 12.77C194.93 12.38 194.39 12.18 193.69 12.18Q192.78 12.18 192.25 12.63L192.25 12.63Q192.17 12.7 192.1 12.77Q191.56 13.35 191.56 14.45ZM204.27 19.24C204.91 19.24 205.41 19.05 205.78 18.68C206.14 18.29 206.32 17.74 206.32 17.03L206.32 14.45C206.32 13.75 206.14 13.22 205.78 12.84Q205.66 12.72 205.53 12.63L205.53 12.63Q205.03 12.27 204.27 12.27C203.64 12.27 203.14 12.46 202.78 12.84Q202.76 12.87 202.74 12.89L202.74 12.89Q202.24 13.46 202.24 14.47L202.24 17.03C202.24 17.73 202.42 18.27 202.78 18.66C203.14 19.04 203.64 19.24 204.27 19.24ZM298.81 19.24C299.45 19.24 299.95 19.05 300.32 18.68Q300.33 18.66 300.34 18.65Q300.86 18.07 300.86 17.03L300.86 14.45Q300.86 13.44 300.36 12.89Q300.34 12.86 300.32 12.84C299.95 12.46 299.45 12.27 298.81 12.27C298.18 12.27 297.68 12.46 297.32 12.84C296.96 13.23 296.78 13.77 296.78 14.47L296.78 17.03C296.78 17.73 296.96 18.27 297.32 18.66C297.68 19.04 298.18 19.24 298.81 19.24ZM161.48 19.2L161.48 12.3Q160.68 12.3 160.17 12.69Q160.06 12.77 159.96 12.88Q159.91 12.92 159.87 12.97L159.87 12.97Q159.41 13.52 159.41 14.45L159.41 17.01C159.41 17.7 159.59 18.24 159.96 18.62C160.32 19.01 160.83 19.2 161.48 19.2ZM162.88 19.2C163.53 19.2 164.04 19.01 164.41 18.62Q164.44 18.59 164.47 18.55L164.47 18.55Q164.95 17.98 164.95 17.01L164.95 14.45Q164.95 13.52 164.49 12.97Q164.45 12.92 164.41 12.88C164.04 12.49 163.53 12.3 162.88 12.3L162.88 19.2ZM288.24 19.18C288.89 19.18 289.4 19 289.78 18.64C290.15 18.27 290.34 17.72 290.34 17.01L290.34 14.49C290.34 13.78 290.15 13.24 289.78 12.88C289.4 12.5 288.89 12.32 288.24 12.32C287.58 12.32 287.07 12.5 286.69 12.88C286.32 13.24 286.13 13.78 286.13 14.49L286.13 17.01C286.13 17.72 286.32 18.27 286.69 18.64C287.07 19 287.58 19.18 288.24 19.18ZM351.26 19.18C351.92 19.18 352.43 19 352.8 18.64C353.18 18.27 353.37 17.72 353.37 17.01L353.37 14.49C353.37 13.78 353.18 13.24 352.8 12.88C352.43 12.5 351.92 12.32 351.26 12.32C350.61 12.32 350.1 12.5 349.72 12.88C349.35 13.24 349.16 13.78 349.16 14.49L349.16 17.01C349.16 17.72 349.35 18.27 349.72 18.64C350.1 19 350.61 19.18 351.26 19.18ZM372.27 19.18C372.93 19.18 373.44 19 373.81 18.64C374.19 18.27 374.37 17.72 374.37 17.01L374.37 14.49C374.37 13.78 374.19 13.24 373.81 12.88C373.44 12.5 372.93 12.32 372.27 12.32C371.62 12.32 371.1 12.5 370.73 12.88Q370.7 12.9 370.68 12.93Q370.17 13.47 370.17 14.49L370.17 17.01C370.17 17.72 370.36 18.27 370.73 18.64C371.1 19 371.62 19.18 372.27 19.18ZM328.24 14.94L330.71 14.94C331.19 14.94 331.56 14.83 331.83 14.61C332.1 14.38 332.23 14.06 332.23 13.65C332.23 13.25 332.1 12.94 331.83 12.72C331.56 12.5 331.19 12.39 330.71 12.39L328.24 12.39L328.24 14.94ZM245.81 15.58L248.2 15.58L248.2 12.42L245.81 12.42C245.25 12.42 244.8 12.57 244.47 12.86C244.14 13.14 243.97 13.53 243.97 14.02C243.97 14.5 244.14 14.87 244.47 15.16C244.8 15.44 245.25 15.58 245.81 15.58ZM181 19.08L184.96 19.08L184.96 12.46L181.89 12.46L181.82 15.8C181.8 16.69 181.69 17.41 181.51 17.98C181.33 18.54 181.16 18.9 181 19.08ZM214.28 19.39C214.98 19.39 215.56 19.22 216.02 18.87C216.48 18.51 216.72 18.05 216.72 17.48L216.72 16.17L213.95 16.17Q213.27 16.17 212.84 16.5L212.84 16.5Q212.78 16.54 212.72 16.59C212.43 16.87 212.29 17.25 212.29 17.73C212.29 18.26 212.46 18.66 212.81 18.96C213.16 19.25 213.65 19.39 214.28 19.39ZM328.24 19.11L330.85 19.11C331.39 19.11 331.8 18.99 332.09 18.75C332.4 18.49 332.55 18.14 332.55 17.69C332.55 17.25 332.4 16.91 332.09 16.66C331.8 16.4 331.39 16.28 330.85 16.28L328.24 16.28L328.24 19.11ZM337.04 38.9L337.04 26.11L341.2 26.11C342.01 26.11 342.72 26.27 343.32 26.59C343.91 26.9 344.37 27.35 344.7 27.92C345.03 28.48 345.19 29.15 345.19 29.93C345.19 30.7 345.03 31.37 344.7 31.95C344.37 32.51 343.91 32.94 343.3 33.26C342.7 33.58 342 33.73 341.2 33.73L338.78 33.73L338.78 38.9L337.04 38.9ZM338.78 32.19L341.2 32.19C341.87 32.19 342.41 31.99 342.81 31.58C343.21 31.16 343.4 30.61 343.4 29.93C343.4 29.24 343.21 28.69 342.81 28.29C342.41 27.87 341.87 27.65 341.2 27.65L338.78 27.65L338.78 32.19ZM168.99 42.05L168.99 29.27L170.71 29.27L170.71 31.07L170.72 31.07C170.84 30.45 171.13 29.97 171.58 29.62Q171.61 29.59 171.64 29.57Q172.33 29.09 173.35 29.09C174.31 29.09 175.08 29.42 175.66 30.07C176.25 30.71 176.54 31.59 176.54 32.7L176.54 35.45C176.54 36.57 176.25 37.46 175.66 38.11Q175.38 38.42 175.04 38.64Q174.33 39.08 173.35 39.08Q172.38 39.08 171.71 38.63L171.71 38.63Q171.65 38.59 171.6 38.55C171.13 38.19 170.84 37.7 170.72 37.08L170.69 37.08L170.72 39.27L170.72 42.05L168.99 42.05ZM200.5 42.05L200.5 29.27L202.22 29.27L202.22 31.07L202.24 31.07C202.35 30.45 202.64 29.97 203.1 29.62C203.56 29.27 204.15 29.09 204.86 29.09C205.82 29.09 206.59 29.42 207.18 30.07C207.76 30.71 208.05 31.59 208.05 32.7L208.05 35.45C208.05 36.57 207.76 37.46 207.18 38.11C206.6 38.75 205.83 39.08 204.86 39.08Q203.89 39.08 203.22 38.63Q203.17 38.59 203.11 38.55C202.65 38.19 202.35 37.7 202.24 37.08L202.2 37.08L202.24 39.27L202.24 42.05L200.5 42.05ZM213.81 39.08C212.79 39.08 211.99 38.82 211.41 38.3C210.84 37.78 210.55 37.07 210.55 36.19C210.55 35.27 210.85 34.56 211.44 34.05C212.05 33.52 212.88 33.26 213.91 33.26L216.72 33.26L216.72 32.35C216.72 31.79 216.54 31.36 216.19 31.05C215.85 30.74 215.38 30.58 214.77 30.58C214.22 30.58 213.76 30.7 213.39 30.95C213.03 31.18 212.81 31.49 212.72 31.88L211.02 31.88C211.07 31.32 211.26 30.83 211.6 30.42C211.94 30 212.39 29.68 212.93 29.44C213.48 29.21 214.1 29.09 214.79 29.09C215.91 29.09 216.8 29.38 217.45 29.97C218.12 30.54 218.45 31.32 218.45 32.3L218.45 38.9L216.75 38.9L216.75 37.11L216.74 37.11C216.65 37.72 216.35 38.2 215.82 38.55C215.3 38.9 214.63 39.08 213.81 39.08ZM253.03 42.05L253.03 29.27L254.74 29.27L254.74 31.07L254.76 31.07C254.88 30.45 255.16 29.97 255.62 29.62Q255.65 29.59 255.68 29.57L255.68 29.57Q256.37 29.09 257.39 29.09C258.35 29.09 259.12 29.42 259.7 30.07C260.28 30.71 260.58 31.59 260.58 32.7L260.58 35.45C260.58 36.57 260.28 37.46 259.7 38.11C259.13 38.75 258.36 39.08 257.39 39.08C256.69 39.08 256.1 38.9 255.64 38.55C255.17 38.19 254.88 37.7 254.76 37.08L254.72 37.08L254.76 39.27L254.76 42.05L253.03 42.05ZM287.34 39.08C286.33 39.08 285.53 38.82 284.94 38.3C284.37 37.78 284.08 37.07 284.08 36.19C284.08 35.27 284.38 34.56 284.98 34.05C285.58 33.52 286.41 33.26 287.45 33.26L290.25 33.26L290.25 32.35C290.25 31.79 290.07 31.36 289.72 31.05C289.39 30.74 288.91 30.58 288.31 30.58C287.76 30.58 287.29 30.7 286.92 30.95C286.56 31.18 286.34 31.49 286.26 31.88L284.56 31.88C284.6 31.32 284.79 30.83 285.13 30.42C285.47 30 285.92 29.68 286.47 29.44C287.01 29.21 287.63 29.09 288.32 29.09C289.44 29.09 290.33 29.38 290.99 29.97C291.65 30.54 291.98 31.32 291.98 32.3L291.98 38.9L290.29 38.9L290.29 37.11L290.27 37.11C290.19 37.72 289.88 38.2 289.36 38.55C288.83 38.9 288.16 39.08 287.34 39.08ZM361.84 39.08C360.66 39.08 359.71 38.75 359 38.09C358.29 37.43 357.93 36.52 357.93 35.36L357.93 32.79C357.93 31.64 358.29 30.74 359 30.09Q359.18 29.92 359.38 29.78Q360.36 29.09 361.84 29.09C362.97 29.09 363.88 29.39 364.57 30C365.26 30.6 365.62 31.41 365.66 32.45L363.94 32.45C363.91 31.87 363.7 31.42 363.33 31.11C362.95 30.78 362.46 30.62 361.84 30.62C361.17 30.62 360.64 30.81 360.24 31.19C359.86 31.57 359.67 32.1 359.67 32.79L359.67 35.36C359.67 36.06 359.86 36.6 360.24 36.97C360.64 37.35 361.17 37.53 361.84 37.53C362.46 37.53 362.95 37.38 363.33 37.06C363.7 36.75 363.91 36.3 363.94 35.71L365.66 35.71C365.62 36.75 365.26 37.57 364.57 38.18C363.88 38.78 362.97 39.08 361.84 39.08ZM372.34 39.08C371.16 39.08 370.22 38.75 369.5 38.09C368.79 37.43 368.44 36.52 368.44 35.36L368.44 32.79C368.44 31.64 368.79 30.74 369.5 30.09C370.22 29.42 371.16 29.09 372.34 29.09C373.47 29.09 374.39 29.39 375.08 30C375.76 30.6 376.13 31.41 376.16 32.45L374.44 32.45C374.41 31.87 374.2 31.42 373.83 31.11C373.46 30.78 372.96 30.62 372.34 30.62C371.68 30.62 371.15 30.81 370.75 31.19C370.36 31.57 370.17 32.1 370.17 32.79L370.17 35.36C370.17 36.06 370.36 36.6 370.75 36.97C371.15 37.35 371.68 37.53 372.34 37.53C372.96 37.53 373.46 37.38 373.83 37.06C374.2 36.75 374.41 36.3 374.44 35.71L376.16 35.71C376.13 36.75 375.76 37.57 375.08 38.18C374.39 38.78 373.47 39.08 372.34 39.08ZM183.19 39.04C182.01 39.04 181.08 38.71 180.39 38.06C179.7 37.39 179.35 36.49 179.35 35.34L179.35 32.82C179.35 31.68 179.7 30.78 180.39 30.12C181.08 29.46 182.01 29.13 183.19 29.13C184.37 29.13 185.3 29.46 185.99 30.12C186.68 30.78 187.03 31.67 187.03 32.8L187.03 35.34C187.03 36.49 186.68 37.39 185.99 38.06C185.3 38.71 184.37 39.04 183.19 39.04ZM267.23 39.04C266.05 39.04 265.11 38.71 264.42 38.06C263.73 37.39 263.39 36.49 263.39 35.34L263.39 32.82C263.39 31.68 263.73 30.78 264.42 30.12C265.11 29.46 266.05 29.13 267.23 29.13C268.41 29.13 269.34 29.46 270.03 30.12C270.72 30.78 271.06 31.67 271.06 32.8L271.06 35.34C271.06 36.49 270.72 37.39 270.03 38.06C269.34 38.71 268.41 39.04 267.23 39.04ZM351.26 39.04C350.08 39.04 349.15 38.71 348.46 38.06C347.77 37.39 347.43 36.49 347.43 35.34L347.43 32.82C347.43 31.68 347.77 30.78 348.46 30.12C349.15 29.46 350.08 29.13 351.26 29.13C352.44 29.13 353.38 29.46 354.07 30.12Q354.3 30.35 354.49 30.61Q355.1 31.5 355.1 32.8L355.1 35.34C355.1 36.49 354.76 37.39 354.07 38.06C353.38 38.71 352.44 39.04 351.26 39.04ZM158.47 38.9L158.47 29.27L165.89 29.27L165.89 38.9L164.16 38.9L164.16 30.84L160.2 30.84L160.2 38.9L158.47 38.9ZM190.68 38.9L190.68 29.27L197.67 29.27L197.67 30.86L192.42 30.86L192.42 38.9L190.68 38.9ZM221.2 38.9L221.2 29.27L223.46 29.27L224.7 32.94C224.83 33.33 224.94 33.7 225.03 34.07C225.14 34.43 225.21 34.7 225.26 34.89C225.3 34.7 225.36 34.43 225.45 34.07C225.55 33.7 225.66 33.32 225.79 32.93L226.96 29.27L229.22 29.27L229.22 38.9L227.57 38.9L227.57 37.38C227.57 36.87 227.58 36.3 227.59 35.66C227.61 35.01 227.64 34.34 227.66 33.66C227.7 32.99 227.72 32.35 227.75 31.75C227.77 31.15 227.79 30.63 227.82 30.19L226.08 36.03L224.38 36.03L222.62 30.28C222.64 30.67 222.66 31.15 222.69 31.74C222.71 32.31 222.73 32.93 222.76 33.59C222.78 34.25 222.8 34.91 222.81 35.57C222.83 36.23 222.84 36.83 222.84 37.38L222.84 38.9L221.2 38.9ZM231.7 38.9L231.7 29.27L233.96 29.27L235.2 32.94C235.33 33.33 235.44 33.7 235.54 34.07C235.64 34.43 235.72 34.7 235.77 34.89C235.8 34.7 235.86 34.43 235.96 34.07C236.05 33.7 236.16 33.32 236.29 32.93L237.46 29.27L239.72 29.27L239.72 38.9L238.08 38.9L238.08 37.38C238.08 36.87 238.08 36.3 238.1 35.66C238.12 35.01 238.14 34.34 238.17 33.66C238.2 32.99 238.23 32.35 238.25 31.75C238.28 31.15 238.3 30.63 238.32 30.19L236.59 36.03L234.89 36.03L233.12 30.28C233.14 30.67 233.17 31.15 233.19 31.74C233.21 32.31 233.24 32.93 233.26 33.59C233.28 34.25 233.3 34.91 233.31 35.57C233.34 36.23 233.35 36.83 233.35 37.38L233.35 38.9L231.7 38.9ZM242.5 38.9L242.5 29.27L244.13 29.27L244.13 34.38C244.13 34.72 244.12 35.08 244.1 35.47C244.07 35.84 244.04 36.21 244.01 36.57C243.97 36.92 243.95 37.22 243.92 37.46L247.74 29.27L249.93 29.27L249.93 38.9L248.3 38.9L248.3 33.77C248.3 33.44 248.31 33.09 248.34 32.72C248.36 32.33 248.38 31.97 248.41 31.63C248.44 31.28 248.48 30.98 248.51 30.74L244.69 38.9L242.5 38.9ZM274.02 38.9L274.02 29.27L278.2 29.27C279.18 29.27 279.96 29.49 280.53 29.93C281.12 30.38 281.41 30.97 281.41 31.72C281.41 32.3 281.22 32.78 280.85 33.14C280.48 33.5 279.97 33.69 279.32 33.72L279.32 33.79C280.06 33.81 280.64 34.04 281.08 34.47Q281.26 34.65 281.39 34.86Q281.74 35.41 281.74 36.19C281.74 37.01 281.44 37.67 280.83 38.16C280.22 38.65 279.4 38.9 278.36 38.9L274.02 38.9ZM295.03 38.9L295.03 29.27L296.76 29.27L296.76 33.17L300.72 33.17L300.72 29.27L302.45 29.27L302.45 38.9L300.72 38.9L300.72 34.75L296.76 34.75L296.76 38.9L295.03 38.9ZM305.53 38.9L305.53 29.27L307.16 29.27L307.16 34.38C307.16 34.72 307.15 35.08 307.12 35.47C307.1 35.84 307.07 36.21 307.04 36.57C307 36.92 306.97 37.22 306.95 37.46L310.77 29.27L312.96 29.27L312.96 38.9L311.33 38.9L311.33 33.77C311.33 33.44 311.34 33.09 311.36 32.72C311.39 32.33 311.41 31.97 311.43 31.63C311.47 31.28 311.5 30.98 311.54 30.74L307.72 38.9L305.53 38.9ZM315.6 38.9L317.98 35.24C317.29 35.06 316.75 34.72 316.35 34.21C315.95 33.68 315.75 33.06 315.75 32.35C315.75 31.4 316.07 30.66 316.7 30.11C317.34 29.55 318.22 29.27 319.33 29.27L323.46 29.27L323.46 38.9L321.73 38.9L321.73 35.36L319.75 35.36L317.59 38.9L315.6 38.9ZM379.06 38.9L379.06 29.27L380.69 29.27L380.69 34.38C380.69 34.72 380.68 35.08 380.66 35.47C380.63 35.84 380.6 36.21 380.57 36.57C380.53 36.92 380.51 37.22 380.48 37.46L384.3 29.27L386.49 29.27L386.49 38.9L384.86 38.9L384.86 33.77C384.86 33.44 384.87 33.09 384.9 32.72C384.92 32.33 384.94 31.97 384.97 31.63C385 31.28 385.04 30.98 385.07 30.74L381.25 38.9L379.06 38.9ZM389.57 38.9L389.57 29.27L391.2 29.27L391.2 34.38C391.2 34.72 391.18 35.08 391.16 35.47C391.14 35.84 391.11 36.21 391.07 36.57C391.04 36.92 391.01 37.22 390.99 37.46L394.81 29.27L397 29.27L397 38.9L395.37 38.9L395.37 33.77C395.37 33.44 395.38 33.09 395.4 32.72C395.42 32.33 395.45 31.97 395.47 31.63C395.51 31.28 395.54 30.98 395.58 30.74L391.76 38.9L389.57 38.9ZM172.76 37.57C173.4 37.57 173.9 37.38 174.26 37.01C174.62 36.62 174.81 36.07 174.81 35.36L174.81 32.79Q174.81 31.78 174.3 31.22Q174.28 31.2 174.26 31.18Q174.15 31.06 174.02 30.96Q173.52 30.6 172.76 30.6C172.12 30.6 171.63 30.79 171.27 31.18C170.9 31.56 170.72 32.1 170.72 32.8L170.72 35.36C170.72 36.06 170.9 36.61 171.27 36.99C171.63 37.38 172.12 37.57 172.76 37.57ZM204.27 37.57C204.91 37.57 205.41 37.38 205.78 37.01C206.14 36.62 206.32 36.07 206.32 35.36L206.32 32.79C206.32 32.09 206.14 31.55 205.78 31.18Q205.66 31.06 205.53 30.96Q205.03 30.6 204.27 30.6C203.64 30.6 203.14 30.79 202.78 31.18C202.42 31.56 202.24 32.1 202.24 32.8L202.24 35.36C202.24 36.06 202.42 36.61 202.78 36.99C203.14 37.38 203.64 37.57 204.27 37.57ZM256.79 37.57C257.43 37.57 257.94 37.38 258.3 37.01C258.66 36.62 258.84 36.07 258.84 35.36L258.84 32.79C258.84 32.09 258.66 31.55 258.3 31.18C257.94 30.79 257.43 30.6 256.79 30.6C256.16 30.6 255.66 30.79 255.3 31.18C254.94 31.56 254.76 32.1 254.76 32.8L254.76 35.36C254.76 36.06 254.94 36.61 255.3 36.99C255.66 37.38 256.16 37.57 256.79 37.57ZM183.19 37.52C183.84 37.52 184.36 37.34 184.73 36.97C185.1 36.6 185.29 36.06 185.29 35.34L185.29 32.82C185.29 32.11 185.1 31.57 184.73 31.21C184.36 30.84 183.84 30.65 183.19 30.65C182.54 30.65 182.02 30.84 181.65 31.21C181.27 31.57 181.09 32.11 181.09 32.82L181.09 35.34C181.09 36.06 181.27 36.6 181.65 36.97C182.02 37.34 182.54 37.52 183.19 37.52ZM267.23 37.52C267.88 37.52 268.39 37.34 268.77 36.97C269.14 36.6 269.33 36.06 269.33 35.34L269.33 32.82C269.33 32.11 269.14 31.57 268.77 31.21C268.39 30.84 267.88 30.65 267.23 30.65C266.57 30.65 266.06 30.84 265.68 31.21C265.31 31.57 265.12 32.11 265.12 32.82L265.12 35.34C265.12 36.06 265.31 36.6 265.68 36.97C266.06 37.34 266.57 37.52 267.23 37.52ZM351.26 37.52C351.92 37.52 352.43 37.34 352.8 36.97C353.18 36.6 353.37 36.06 353.37 35.34L353.37 32.82C353.37 32.11 353.18 31.57 352.8 31.21C352.43 30.84 351.92 30.65 351.26 30.65C350.61 30.65 350.1 30.84 349.72 31.21C349.35 31.57 349.16 32.11 349.16 32.82L349.16 35.34C349.16 36.06 349.35 36.6 349.72 36.97C350.1 37.34 350.61 37.52 351.26 37.52ZM275.72 33.28L278.19 33.28C278.67 33.28 279.04 33.17 279.31 32.94C279.58 32.71 279.71 32.39 279.71 31.98C279.71 31.58 279.58 31.27 279.31 31.05Q278.9 30.72 278.19 30.72L275.72 30.72L275.72 33.28ZM319.35 33.91L321.73 33.91L321.73 30.76L319.35 30.76C318.79 30.76 318.34 30.9 318 31.19C317.67 31.47 317.51 31.86 317.51 32.35C317.51 32.83 317.67 33.21 318 33.49C318.34 33.77 318.79 33.91 319.35 33.91ZM214.28 37.73C214.98 37.73 215.56 37.55 216.02 37.2C216.48 36.84 216.72 36.38 216.72 35.82L216.72 34.5L213.95 34.5C213.44 34.5 213.03 34.64 212.72 34.92C212.43 35.2 212.29 35.58 212.29 36.06C212.29 36.59 212.46 37 212.81 37.29C213.16 37.58 213.65 37.73 214.28 37.73ZM287.82 37.73C288.52 37.73 289.09 37.55 289.55 37.2Q289.95 36.89 290.12 36.49Q290.25 36.18 290.25 35.82L290.25 34.5L287.48 34.5C286.97 34.5 286.56 34.64 286.26 34.92C285.96 35.2 285.82 35.58 285.82 36.06C285.82 36.59 285.99 37 286.34 37.29C286.69 37.58 287.18 37.73 287.82 37.73ZM275.72 37.45L278.33 37.45C278.86 37.45 279.28 37.32 279.57 37.08C279.87 36.82 280.03 36.47 280.03 36.03Q280.03 35.58 279.82 35.27Q279.72 35.12 279.57 34.99Q279.13 34.61 278.33 34.61L275.72 34.61L275.72 37.45Z" fill="#1B1C21" fill-opacity="1.000000" fill-rule="evenodd"/>
</svg>