<svg width="408" height="58" viewBox="0 0 408 58" fill="none" xmlns="http://www.w3.org/2000/svg">
<g clip-path="url(#clip0_1_2)">
<path d="M232.481 56.8768H239.915V44.1127L232.481 29.1891V56.8768ZM222.966 56.8768H230.573V25.3685L222.966 10.0994V56.8768ZM213.452 1.12269V54.0064L214.706 56.8768H221.236V6.61771L218.496 1.12269H213.452ZM203.937 32.2722L204.571 33.7141H203.937V50.1991H211.801L211.9 50.4184V1.12269H203.944V32.2788L203.937 32.2722ZM251.516 56.8702H258.601V1.12269H251.516V56.8768V56.8702ZM242.002 56.8702H246.28L242.002 48.2855V56.8702ZM261.031 56.8702H267.944V1.12269H261.031V56.8768V56.8702ZM247.066 56.8702H249.258V1.12269H247.066V56.8768V56.8702ZM194.423 50.1991H202.557V33.7141H194.423V50.1991ZM164.915 1.12269H88.8128V20.3121H112.715V56.8835H141.014V20.3121H164.915V1.12269ZM45.7236 -0.000229566H43.1156C4.99163 -0.000229566 0 16.033 0 27.7273V29.9732C0 41.5878 5.28876 57.9998 43.1156 57.9998H45.7236C82.4346 57.9998 87.1225 42.1925 87.1225 34.3918V32.445H58.4536C58.2291 33.7938 57.034 40.0861 44.0069 40.0861C30.9798 40.0861 29.1179 33.8669 29.1179 29.0695V28.1725C29.1179 23.3021 31.3496 17.7539 44.0069 17.7539C56.6643 17.7539 58.0773 23.6011 58.4536 24.7971H87.1225V23.6742C87.1225 15.4283 82.428 -0.00687408 45.7236 -0.00687408V-0.000229566ZM194.416 26.1459L197.79 18.2788L202.544 29.1227V1.12269H194.41V26.1459H194.416ZM165.186 56.8768V30.0131L152.588 56.8835H165.186V56.8768ZM270.539 56.8768H275.359V41.6675H277.273V24.8038H275.359V17.4616H277.273V1.12269H270.539V56.8768ZM165.873 56.8768H174.529V10.0861L165.873 28.5513V56.8768ZM184.902 50.2058H193.208V33.7207H191.168L193.208 28.9632V1.12269H184.902V50.2058ZM175.387 8.25226V56.8768H181.184L183.865 50.7174V1.12269H178.728L175.387 8.25226ZM376.492 56.8768H381.252V1.12269H376.492V56.8768ZM367.083 56.8768H372.015V1.12269H367.083V56.8768ZM357.674 56.8768H362.785V1.12269H357.674V56.8768ZM348.265 20.3054H353.548V1.12269H348.265V20.3121V20.3054ZM404.725 1.12269V20.3121H408V1.12269H404.725ZM280.053 41.6609H286.616V24.7971H280.053V41.6609ZM395.31 20.3054H399.727V1.12269H395.31V20.3121V20.3054ZM385.901 20.3054H390.49V1.12269H385.901V20.3121V20.3054ZM338.843 20.3054H344.297V1.12269H338.843V20.3121V20.3054ZM289.574 17.4549H295.173C295.451 17.4549 295.715 17.4682 295.959 17.4815V1.12269H289.574V17.4616V17.4549ZM299.089 1.12269V18.4782C299.868 19.1293 300.152 20.033 300.152 21.0562V21.2091C300.152 22.1526 299.868 23.0629 299.089 23.7273V41.6675H302.093C303.209 41.6675 304.265 41.6343 305.295 41.5878V1.19578C304.265 1.14927 303.202 1.12269 302.093 1.12269H299.089ZM289.574 24.8038V41.6675H295.959V24.7772C295.708 24.7971 295.451 24.8038 295.173 24.8038H289.574ZM280.06 17.4616H286.623V1.12269H280.06V17.4616ZM308.603 41.3353C310.828 41.0961 312.835 40.7307 314.638 40.2523V2.43831C312.835 1.99313 310.828 1.65426 308.603 1.43499V41.3353ZM327.11 31.5546C328.675 28.7307 329.316 25.5014 329.316 22.126V20.1792C329.316 16.7572 328.689 13.5479 327.11 10.7705V31.5546ZM318.118 39.0961C320.508 38.1194 322.436 36.8968 323.981 35.4815V6.93665C322.442 5.58781 320.514 4.43166 318.118 3.51472V39.0961ZM332.723 20.3121H335.053V1.12269H332.723V20.3121Z" fill="white"/>
</g>
<defs>
<clipPath id="clip0_1_2">
<rect width="408" height="58" fill="white"/>
</clipPath>
</defs>
</svg>
