<svg width="377" height="76" viewBox="0 0 377 76" fill="none" xmlns="http://www.w3.org/2000/svg">
<g clip-path="url(#clip0_2050_939)">
<path d="M209.917 50.9151H216.63V39.4889L209.917 26.1297V50.9151ZM201.326 50.9151H208.194V22.7096L201.326 9.04106V50.9151ZM192.735 1.0053V48.3455L193.868 50.9151H199.764V5.92431L197.29 1.0053H192.735ZM184.144 28.8896L184.717 30.1803H184.144V44.9373H191.245L191.334 45.1336V1.0053H184.15V28.8955L184.144 28.8896ZM227.105 50.9091H233.503V1.0053H227.105V50.9151V50.9091ZM218.514 50.9091H222.378L218.514 43.2243V50.9091ZM235.696 50.9091H241.939V1.0053H235.696V50.9151V50.9091ZM223.087 50.9091H225.066V1.0053H223.087V50.9151V50.9091ZM175.553 44.9373H182.898V30.1803H175.553V44.9373ZM148.91 1.0053H80.1931V18.1832H101.775V50.921H127.328V18.1832H148.91V1.0053ZM41.2859 8.86344e-05H38.931C4.50717 8.86344e-05 0 14.3526 0 24.8211V26.8316C0 37.2287 4.77546 51.9203 38.931 51.9203H41.2859C74.4339 51.9203 78.6668 37.7699 78.6668 30.787V29.0442H52.7804C52.5777 30.2517 51.4986 35.8844 39.7359 35.8844C27.9731 35.8844 26.2918 30.3171 26.2918 26.0226V25.2196C26.2918 20.8598 28.307 15.8932 39.7359 15.8932C51.1648 15.8932 52.4406 21.1274 52.7804 22.1981H78.6668V21.1928C78.6668 13.8114 74.428 -0.00585938 41.2859 -0.00585938V8.86344e-05ZM175.547 23.4055L178.594 16.3631L182.886 26.0702V1.0053H175.541V23.4055H175.547ZM149.154 50.9151V26.8672L137.779 50.921H149.154V50.9151ZM244.282 50.9151H248.634V37.3001H250.363V22.204H248.634V15.6315H250.363V1.0053H244.282V50.9151ZM149.774 50.9151H157.59V9.02917L149.774 25.5587V50.9151ZM166.956 44.9432H174.456V30.1862H172.614L174.456 25.9275V1.0053H166.956V44.9432ZM158.365 7.38752V50.9151H163.6L166.02 45.4012V1.0053H161.382L158.365 7.38752ZM339.952 50.9151H344.25V1.0053H339.952V50.9151ZM331.456 50.9151H335.91V1.0053H331.456V50.9151ZM322.96 50.9151H327.575V1.0053H322.96V50.9151ZM314.465 18.1772H319.234V1.0053H314.465V18.1832V18.1772ZM365.445 1.0053V18.1832H368.402V1.0053H365.445ZM252.873 37.2941H258.799V22.1981H252.873V37.2941ZM356.943 18.1772H360.932V1.0053H356.943V18.1832V18.1772ZM348.447 18.1772H352.591V1.0053H348.447V18.1832V18.1772ZM305.957 18.1772H310.882V1.0053H305.957V18.1832V18.1772ZM261.47 15.6255H266.525C266.776 15.6255 267.014 15.6374 267.235 15.6493V1.0053H261.47V15.6315V15.6255ZM270.061 1.0053V16.5415C270.764 17.1244 271.021 17.9333 271.021 18.8493V18.9861C271.021 19.8308 270.764 20.6456 270.061 21.2404V37.3001H272.773C273.781 37.3001 274.735 37.2703 275.665 37.2287V1.07073C274.735 1.02909 273.775 1.0053 272.773 1.0053H270.061ZM261.47 22.204V37.3001H267.235V22.1802C267.008 22.1981 266.776 22.204 266.525 22.204H261.47ZM252.879 15.6315H258.805V1.0053H252.879V15.6315ZM278.652 37.0027C280.661 36.7885 282.473 36.4614 284.101 36.0331V2.18301C282.473 1.78449 280.661 1.48114 278.652 1.28486V37.0027ZM295.363 28.2472C296.776 25.7193 297.354 22.8285 297.354 19.807V18.0642C297.354 15.001 296.788 12.1281 295.363 9.64181V28.2472ZM287.243 34.9982C289.401 34.1238 291.142 33.0294 292.537 31.7625V6.20981C291.148 5.00236 289.407 3.96741 287.243 3.14659V34.9982ZM300.43 18.1832H302.535V1.0053H300.43V18.1832Z" fill="#FF0000"/>
</g>
<path d="M6.98442 60.6071V59.2793H8.6214V60.6071C10.3857 60.6253 11.8226 61.1164 12.9685 62.1168C14.1144 63.0989 14.6782 64.3358 14.6782 65.8454C14.6782 67.3551 14.1144 68.5919 12.9685 69.5923C11.8226 70.5745 10.3857 71.0655 8.6214 71.0837V72.4115H6.98442V71.0837C5.22013 71.0655 3.78323 70.5745 2.63735 69.5923C1.49147 68.5919 0.927619 67.3551 0.927619 65.8454C0.927619 64.3358 1.49147 63.0989 2.63735 62.1168C3.78323 61.1164 5.22013 60.6253 6.98442 60.6071ZM6.98442 69.5013V62.1895C5.72941 62.1895 4.67447 62.5351 3.85598 63.2263C3.0375 63.8992 2.61916 64.7723 2.61916 65.8454C2.61916 66.9185 3.0375 67.7916 3.85598 68.4828C4.67447 69.1557 5.72941 69.5013 6.98442 69.5013ZM8.6214 62.1895V69.5013C9.87641 69.5013 10.9132 69.1557 11.7316 68.4828C12.5501 67.7916 12.9685 66.9185 12.9685 65.8454C12.9685 64.7723 12.5501 63.8992 11.7316 63.2263C10.9132 62.5351 9.87641 62.1895 8.6214 62.1895ZM17.0318 59.4794H26.1988V61.0072H18.6687V65.0087H25.2712V66.5366H18.6687V70.6836H26.2898V72.2114H17.0318V59.4794ZM34.2082 59.2793C36.7 59.2793 38.8281 60.5525 39.974 62.5897L38.3734 63.1899C37.5185 61.753 36.0089 60.8617 34.2082 60.8617C32.8259 60.8617 31.6618 61.3346 30.7342 62.2986C29.8066 63.2444 29.3337 64.4267 29.3337 65.8454C29.3337 67.2641 29.8066 68.4464 30.7342 69.4104C31.6618 70.3562 32.8259 70.8291 34.2082 70.8291C36.0089 70.8291 37.5185 69.9379 38.3734 68.501L39.974 69.1012C38.8281 71.1383 36.7 72.4115 34.2082 72.4115C32.3348 72.4115 30.7706 71.7931 29.5155 70.5381C28.2605 69.2831 27.6421 67.7188 27.6421 65.8454C27.6421 63.972 28.2605 62.426 29.5155 61.1709C30.7706 59.9159 32.3348 59.2793 34.2082 59.2793ZM45.5947 61.0072H40.8293V59.4794H51.9971V61.0072H47.2317V72.2114H45.5947V61.0072ZM55.3978 72.2114H53.9063V59.4794H55.5433V69.4286L63.3098 59.4794H64.8013V72.2114H63.1461V62.3168L55.3978 72.2114ZM74.039 72.2114H67.6366V59.4794H73.6752C74.7119 59.4794 75.5668 59.8068 76.258 60.4434C76.9673 61.08 77.3129 61.8621 77.3129 62.8079C77.3129 63.9538 76.84 64.845 75.876 65.4816C77.131 66.0637 77.9313 67.2459 77.9313 68.6465C77.9313 69.6468 77.5494 70.5017 76.8036 71.1929C76.0579 71.8658 75.1485 72.2114 74.039 72.2114ZM74.039 66.3547H69.2735V70.6836H74.039C75.2758 70.6836 76.2216 69.756 76.2216 68.5191C76.2216 67.9189 76.0033 67.4096 75.585 66.9913C75.1667 66.573 74.6574 66.3547 74.039 66.3547ZM73.6752 61.0072H69.2735V64.8269H73.6752C74.7847 64.8269 75.6214 64.0084 75.6214 62.9171C75.6214 61.8257 74.7847 61.0072 73.6752 61.0072ZM80.5465 72.2114H78.8186L84.4025 59.4794H85.7303L91.3142 72.2114H89.5862L88.3494 69.3558H81.7833L80.5465 72.2114ZM87.6764 67.828L85.0755 61.8257L82.4563 67.828H87.6764ZM92.4001 72.2114H91.9272V70.6836H92.4001C92.8184 70.6836 93.164 70.5563 93.455 70.3016C94.037 69.7742 94.4736 68.2281 94.4736 65.6635V59.4794H103.55V72.2114H101.895V61.0072H96.1105V65.6635C96.1105 70.0288 94.8737 72.2114 92.4001 72.2114ZM106.376 72.2114V59.4794H108.013V64.4267H111.924C113.088 64.4267 114.052 64.8087 114.834 65.5544C115.616 66.3001 116.016 67.2096 116.016 68.3191C116.016 69.4286 115.616 70.3562 114.834 71.1019C114.052 71.8477 113.088 72.2114 111.924 72.2114H106.376ZM108.013 65.9545V70.6836H111.924C113.088 70.6836 114.034 69.9379 114.27 68.8647L114.325 68.4646C114.325 67.0095 113.379 65.9545 111.924 65.9545H108.013ZM129.343 59.2793C131.835 59.2793 133.963 60.5525 135.109 62.5897L133.508 63.1899C132.653 61.753 131.144 60.8617 129.343 60.8617C127.961 60.8617 126.797 61.3346 125.869 62.2986C124.941 63.2444 124.469 64.4267 124.469 65.8454C124.469 67.2641 124.941 68.4464 125.869 69.4104C126.797 70.3562 127.961 70.8291 129.343 70.8291C131.144 70.8291 132.653 69.9379 133.508 68.501L135.109 69.1012C133.963 71.1383 131.835 72.4115 129.343 72.4115C127.47 72.4115 125.905 71.7931 124.65 70.5381C123.395 69.2831 122.777 67.7188 122.777 65.8454C122.777 63.972 123.395 62.426 124.65 61.1709C125.905 59.9159 127.47 59.2793 129.343 59.2793ZM140.73 61.0072H135.964V59.4794H147.132V61.0072H142.367V72.2114H140.73V61.0072ZM153.425 69.0284L147.932 59.4794H149.751L154.243 67.3369L157.99 59.4794H159.754L155.098 69.2649C154.17 71.2292 152.861 72.2114 151.206 72.2114H149.896V70.6836H151.078C152.006 70.6836 152.788 70.1379 153.425 69.0284ZM160.797 75.3035H159.16V70.6836H160.597C161.652 70.338 162.18 68.6828 162.18 65.7181V59.4794H171.31V70.6836H173.402V75.3035H171.765V72.2114H160.797V75.3035ZM162.78 70.6836H169.655V61.0072H163.817V65.6453C163.817 67.9007 163.471 69.5741 162.78 70.6836ZM175.258 59.4794H184.425V61.0072H176.895V65.0087H183.498V66.5366H176.895V70.6836H184.516V72.2114H175.258V59.4794ZM188.281 72.2114H186.644V59.4794H188.281V65.0087H195.829V59.4794H197.484V72.2114H195.829V66.5366H188.281V72.2114ZM205.341 67.4278C201.794 67.4278 199.775 65.9182 199.775 63.2263V59.4794H201.412V63.2263C201.412 65.0087 202.722 65.9 205.323 65.9C206.396 65.9 207.415 65.7727 208.415 65.518V59.4794H210.052V72.2114H208.415V67.0459C207.451 67.3005 206.432 67.4278 205.341 67.4278ZM212.897 59.4794H222.064V61.0072H214.534V65.0087H221.136V66.5366H214.534V70.6836H222.155V72.2114H212.897V59.4794ZM230.073 59.2793C232.565 59.2793 234.693 60.5525 235.839 62.5897L234.238 63.1899C233.383 61.753 231.874 60.8617 230.073 60.8617C228.691 60.8617 227.527 61.3346 226.599 62.2986C225.671 63.2444 225.199 64.4267 225.199 65.8454C225.199 67.2641 225.671 68.4464 226.599 69.4104C227.527 70.3562 228.691 70.8291 230.073 70.8291C231.874 70.8291 233.383 69.9379 234.238 68.501L235.839 69.1012C234.693 71.1383 232.565 72.4115 230.073 72.4115C228.2 72.4115 226.635 71.7931 225.38 70.5381C224.125 69.2831 223.507 67.7188 223.507 65.8454C223.507 63.972 224.125 62.426 225.38 61.1709C226.635 59.9159 228.2 59.2793 230.073 59.2793ZM248.087 72.2114H245.977L239.993 65.7181L245.613 59.4794H247.723L242.102 65.7181L248.087 72.2114ZM238.119 72.2114V59.4794H239.756V72.2114H238.119ZM255.331 59.2793C257.205 59.2793 258.769 59.9159 260.024 61.1709C261.279 62.426 261.915 63.972 261.915 65.8454C261.915 67.7188 261.279 69.2831 260.024 70.5381C258.769 71.7931 257.205 72.4115 255.331 72.4115C253.458 72.4115 251.893 71.7931 250.638 70.5381C249.383 69.2831 248.765 67.7188 248.765 65.8454C248.765 63.972 249.383 62.426 250.638 61.1709C251.893 59.9159 253.458 59.2793 255.331 59.2793ZM255.331 70.8291C256.732 70.8291 257.878 70.3562 258.805 69.4104C259.733 68.4464 260.206 67.2641 260.206 65.8454C260.206 64.4267 259.733 63.2444 258.805 62.2986C257.878 61.3346 256.732 60.8617 255.331 60.8617C253.949 60.8617 252.785 61.3346 251.857 62.2986C250.929 63.2444 250.457 64.4267 250.457 65.8454C250.457 67.2641 250.929 68.4464 251.857 69.4104C252.785 70.3562 253.949 70.8291 255.331 70.8291ZM265.884 61.0072V72.2114H264.248V59.4794H272.396V61.0072H265.884ZM279.701 59.2793C281.574 59.2793 283.139 59.9159 284.394 61.1709C285.649 62.426 286.285 63.972 286.285 65.8454C286.285 67.7188 285.649 69.2831 284.394 70.5381C283.139 71.7931 281.574 72.4115 279.701 72.4115C277.828 72.4115 276.263 71.7931 275.008 70.5381C273.753 69.2831 273.135 67.7188 273.135 65.8454C273.135 63.972 273.753 62.426 275.008 61.1709C276.263 59.9159 277.828 59.2793 279.701 59.2793ZM279.701 70.8291C281.102 70.8291 282.247 70.3562 283.175 69.4104C284.103 68.4464 284.576 67.2641 284.576 65.8454C284.576 64.4267 284.103 63.2444 283.175 62.2986C282.247 61.3346 281.102 60.8617 279.701 60.8617C278.319 60.8617 277.155 61.3346 276.227 62.2986C275.299 63.2444 274.826 64.4267 274.826 65.8454C274.826 67.2641 275.299 68.4464 276.227 69.4104C277.155 70.3562 278.319 70.8291 279.701 70.8291ZM299.684 59.2793C302.175 59.2793 304.303 60.5525 305.449 62.5897L303.849 63.1899C302.994 61.753 301.484 60.8617 299.684 60.8617C298.301 60.8617 297.137 61.3346 296.21 62.2986C295.282 63.2444 294.809 64.4267 294.809 65.8454C294.809 67.2641 295.282 68.4464 296.21 69.4104C297.137 70.3562 298.301 70.8291 299.684 70.8291C301.484 70.8291 302.994 69.9379 303.849 68.501L305.449 69.1012C304.303 71.1383 302.175 72.4115 299.684 72.4115C297.81 72.4115 296.246 71.7931 294.991 70.5381C293.736 69.2831 293.117 67.7188 293.117 65.8454C293.117 63.972 293.736 62.426 294.991 61.1709C296.246 59.9159 297.81 59.2793 299.684 59.2793ZM309.367 61.0072V72.2114H307.73V59.4794H318.57V72.2114H316.915V61.0072H309.367ZM327.482 59.2793C329.355 59.2793 330.919 59.9159 332.174 61.1709C333.429 62.426 334.066 63.972 334.066 65.8454C334.066 67.7188 333.429 69.2831 332.174 70.5381C330.919 71.7931 329.355 72.4115 327.482 72.4115C325.608 72.4115 324.044 71.7931 322.789 70.5381C321.534 69.2831 320.916 67.7188 320.916 65.8454C320.916 63.972 321.534 62.426 322.789 61.1709C324.044 59.9159 325.608 59.2793 327.482 59.2793ZM327.482 70.8291C328.882 70.8291 330.028 70.3562 330.956 69.4104C331.883 68.4464 332.356 67.2641 332.356 65.8454C332.356 64.4267 331.883 63.2444 330.956 62.2986C330.028 61.3346 328.882 60.8617 327.482 60.8617C326.099 60.8617 324.935 61.3346 324.008 62.2986C323.08 63.2444 322.607 64.4267 322.607 65.8454C322.607 67.2641 323.08 68.4464 324.008 69.4104C324.935 70.3562 326.099 70.8291 327.482 70.8291ZM338.035 67.3369V72.2114H336.398V59.4794H341.982C343.164 59.4794 344.146 59.8614 344.928 60.6071C345.711 61.3528 346.111 62.2986 346.111 63.4081C346.111 64.5176 345.711 65.4635 344.928 66.2092C344.146 66.9549 343.164 67.3369 341.982 67.3369H338.035ZM341.982 61.0072H338.035V65.809H341.982C342.673 65.809 343.255 65.5726 343.71 65.1179C344.165 64.6632 344.401 64.0811 344.401 63.4081C344.401 62.0258 343.364 61.0072 341.982 61.0072ZM351.906 61.0072H347.14V59.4794H358.308V61.0072H353.543V72.2114H351.906V61.0072ZM359.184 72.2114H357.456L363.04 59.4794H364.368L369.951 72.2114H368.223L366.987 69.3558H360.421L359.184 72.2114ZM366.314 67.828L363.713 61.8257L361.094 67.828H366.314Z" fill="black"/>
<defs>
<clipPath id="clip0_2050_939">
<rect width="368.402" height="51.9202" fill="white"/>
</clipPath>
</defs>
</svg>
