<svg width="1920" height="1080" viewBox="0 0 1920 1080" fill="none" xmlns="http://www.w3.org/2000/svg">
<g clip-path="url(#clip0_3_2)">
<path d="M1839.64 653.744H1838.03V945.049H1839.64V653.744Z" fill="#FF0000"/>
<path d="M1815.93 648.332H1813.71V939.636H1815.93V648.332Z" fill="#FF0000"/>
<path d="M1792.21 642.919H1789.41V934.223H1792.21V642.919Z" fill="#FF0000"/>
<path d="M1768.51 637.506H1765.1V928.81H1768.51V637.506Z" fill="#FF0000"/>
<path d="M1744.79 632.093H1740.79V923.397H1744.79V632.093Z" fill="#FF0000"/>
<path d="M1721.08 626.68H1716.48V917.985H1721.08V626.68Z" fill="#FF0000"/>
<path d="M1697.37 621.268H1692.18V912.572H1697.37V621.268Z" fill="#FF0000"/>
<path d="M1673.66 615.855H1667.86V907.159H1673.66V615.855Z" fill="#FF0000"/>
<path d="M1649.94 610.442H1643.56V901.746H1649.94V610.442Z" fill="#FF0000"/>
<path d="M1626.24 605.029H1619.25V896.333H1626.24V605.029Z" fill="#FF0000"/>
<path d="M1602.53 599.616H1594.93V890.921H1602.53V599.616Z" fill="#FF0000"/>
<path d="M1578.81 594.203H1570.63V885.508H1578.81V594.203Z" fill="#FF0000"/>
<path d="M1555.11 588.791H1546.32V880.095H1555.11V588.791Z" fill="#FF0000"/>
<path d="M1531.39 583.366H1522.01V874.682H1531.39V583.366Z" fill="#FF0000"/>
<path d="M1507.68 577.954H1497.7V869.27H1507.68V577.954Z" fill="#FF0000"/>
<path d="M1483.97 572.541H1473.4V863.857H1483.97V572.541Z" fill="#FF0000"/>
<path d="M1460.26 567.128H1449.08V858.444H1460.26V567.128Z" fill="#FF0000"/>
<path d="M1436.54 561.715H1424.78V853.031H1436.54V561.715Z" fill="#FF0000"/>
<path d="M1412.84 556.302H1400.47V847.618H1412.84V556.302Z" fill="#FF0000"/>
<path d="M1389.12 550.89H1376.16V842.206H1389.12V550.89Z" fill="#FF0000"/>
<path d="M1365.41 545.477H1351.85V836.793H1365.41V545.477Z" fill="#FF0000"/>
<path d="M1341.7 540.064H1327.55V831.38H1341.7V540.064Z" fill="#FF0000"/>
<path d="M1317.99 534.651H1303.23V825.955H1317.99V534.651Z" fill="#FF0000"/>
<path d="M1294.28 529.238H1278.93V820.543H1294.28V529.238Z" fill="#FF0000"/>
<path d="M1270.57 523.826H1254.62V815.13H1270.57V523.826Z" fill="#FF0000"/>
<path d="M1246.86 518.413H1230.3V809.717H1246.86V518.413Z" fill="#FF0000"/>
<path d="M1223.14 513H1206V804.304H1223.14V513Z" fill="#FF0000"/>
<path d="M377.637 6.74445H376.028V298.049H377.637V6.74445Z" fill="#FF0000"/>
<path d="M353.931 1.33154H351.712V292.636H353.931V1.33154Z" fill="#FF0000"/>
<path d="M330.213 -4.08142H327.407V287.223H330.213V-4.08142Z" fill="#FF0000"/>
<path d="M306.507 -9.49402H303.102V281.81H306.507V-9.49402Z" fill="#FF0000"/>
<path d="M282.79 -14.9069H278.786V276.397H282.79V-14.9069Z" fill="#FF0000"/>
<path d="M259.084 -20.3196H254.481V270.985H259.084V-20.3196Z" fill="#FF0000"/>
<path d="M235.366 -25.7325H230.177V265.572H235.366V-25.7325Z" fill="#FF0000"/>
<path d="M211.66 -31.1451H205.86V260.159H211.66V-31.1451Z" fill="#FF0000"/>
<path d="M187.943 -36.558H181.555V254.746H187.943V-36.558Z" fill="#FF0000"/>
<path d="M164.237 -41.9709H157.251V249.333H164.237V-41.9709Z" fill="#FF0000"/>
<path d="M140.531 -47.3835H132.934V243.921H140.531V-47.3835Z" fill="#FF0000"/>
<path d="M116.813 -52.7965H108.63V238.508H116.813V-52.7965Z" fill="#FF0000"/>
<path d="M93.1073 -58.2091H84.3248V233.095H93.1073V-58.2091Z" fill="#FF0000"/>
<path d="M69.3897 -63.6338H60.0083V227.682H69.3897V-63.6338Z" fill="#FF0000"/>
<path d="M45.6838 -69.0464H35.7036V222.27H45.6838V-69.0464Z" fill="#FF0000"/>
<path d="M21.9661 -74.4594H11.3989V216.857H21.9661V-74.4594Z" fill="#FF0000"/>
<path d="M1922.25 1033.76H1919.47V1235.64H1922.25V1033.76Z" fill="#FF0000"/>
<path d="M1905.82 1030.01H1902.62V1231.89H1905.82V1030.01Z" fill="#FF0000"/>
<path d="M1889.38 1026.26H1885.78V1228.15H1889.38V1026.26Z" fill="#FF0000"/>
<path d="M1872.95 1022.51H1868.93V1224.39H1872.95V1022.51Z" fill="#FF0000"/>
<path d="M1856.52 1018.76H1852.08V1220.64H1856.52V1018.76Z" fill="#FF0000"/>
<path d="M1840.08 1015H1835.24V1216.89H1840.08V1015Z" fill="#FF0000"/>
<path d="M1823.65 1011.25H1818.4V1213.14H1823.65V1011.25Z" fill="#FF0000"/>
<path d="M1807.21 1007.5H1801.54V1209.38H1807.21V1007.5Z" fill="#FF0000"/>
<path d="M1790.79 1003.75H1784.7V1205.63H1790.79V1003.75Z" fill="#FF0000"/>
<path d="M1774.35 999.995H1767.86V1201.88H1774.35V999.995Z" fill="#FF0000"/>
<path d="M1757.93 996.246H1751V1198.13H1757.93V996.246Z" fill="#FF0000"/>
<path d="M1741.49 992.497H1734.16V1194.38H1741.49V992.497Z" fill="#FF0000"/>
<path d="M1725.06 988.747H1717.32V1190.63H1725.06V988.747Z" fill="#FF0000"/>
<path d="M1708.63 984.989H1700.47V1186.88H1708.63V984.989Z" fill="#FF0000"/>
<path d="M1692.19 981.24H1683.62V1183.13H1692.19V981.24Z" fill="#FF0000"/>
<path d="M1675.76 977.491H1666.77V1179.37H1675.76V977.491Z" fill="#FF0000"/>
<path d="M1659.32 973.742H1649.93V1175.62H1659.32V973.742Z" fill="#FF0000"/>
<path d="M1642.9 969.983H1633.09V1171.87H1642.9V969.983Z" fill="#FF0000"/>
<path d="M1626.46 966.234H1616.23V1168.11H1626.46V966.234Z" fill="#FF0000"/>
<path d="M1610.03 962.485H1599.39V1164.36H1610.03V962.485Z" fill="#FF0000"/>
<path d="M1593.59 958.736H1582.55V1160.61H1593.59V958.736Z" fill="#FF0000"/>
<path d="M1577.16 954.978H1565.69V1156.87H1577.16V954.978Z" fill="#FF0000"/>
<path d="M1560.73 951.228H1548.85V1153.12H1560.73V951.228Z" fill="#FF0000"/>
<path d="M1930.22 797.643H1918.16V1056.86H1930.22V797.643Z" fill="#FF0000"/>
<path d="M1909.13 792.817H1896.54V1052.04H1909.13V792.817Z" fill="#FF0000"/>
<path d="M1888.02 788.003H1874.9V1047.22H1888.02V788.003Z" fill="#FF0000"/>
<path d="M1866.94 783.189H1853.27V1042.4H1866.94V783.189Z" fill="#FF0000"/>
<path d="M1845.82 778.375H1831.64V1037.59H1845.82V778.375Z" fill="#FF0000"/>
<path d="M1824.73 773.55H1810V1032.78H1824.73V773.55Z" fill="#FF0000"/>
<path d="M1803.63 768.736H1788.37V1027.96H1803.63V768.736Z" fill="#FF0000"/>
<path d="M1834.09 500.52H1833.3V541.066H1834.09V500.52Z" fill="#FF0000"/>
<path d="M1822.52 497.878H1821.44V538.425H1822.52V497.878Z" fill="#FF0000"/>
<path d="M1810.93 495.238H1809.56V535.784H1810.93V495.238Z" fill="#FF0000"/>
<path d="M1799.35 492.579H1797.68V533.126H1799.35V492.579Z" fill="#FF0000"/>
<path d="M1787.78 489.938H1785.82V530.484H1787.78V489.938Z" fill="#FF0000"/>
<path d="M1776.2 487.296H1773.95V527.842H1776.2V487.296Z" fill="#FF0000"/>
<path d="M1764.63 484.655H1762.09V525.201H1764.63V484.655Z" fill="#FF0000"/>
<path d="M1753.03 482.013H1750.21V522.56H1753.03V482.013Z" fill="#FF0000"/>
<path d="M1741.46 479.372H1738.33V519.918H1741.46V479.372Z" fill="#FF0000"/>
<path d="M1729.88 476.731H1726.47V517.277H1729.88V476.731Z" fill="#FF0000"/>
<path d="M1718.29 474.089H1714.59V514.636H1718.29V474.089Z" fill="#FF0000"/>
<path d="M1706.72 471.431H1702.71V511.977H1706.72V471.431Z" fill="#FF0000"/>
<path d="M1695.14 468.789H1690.85V509.336H1695.14V468.789Z" fill="#FF0000"/>
<path d="M1683.55 466.148H1678.97V506.695H1683.55V466.148Z" fill="#FF0000"/>
<path d="M1671.97 463.507H1667.1V504.053H1671.97V463.507Z" fill="#FF0000"/>
<path d="M1660.4 460.865H1655.23V501.412H1660.4V460.865Z" fill="#FF0000"/>
<path d="M1648.81 458.224H1643.36V498.771H1648.81V458.224Z" fill="#FF0000"/>
<path d="M1637.25 455.582H1631.49V496.129H1637.25V455.582Z" fill="#FF0000"/>
<path d="M1625.66 452.924H1619.62V493.471H1625.66V452.924Z" fill="#FF0000"/>
<path d="M1614.06 450.283H1607.74V490.829H1614.06V450.283Z" fill="#FF0000"/>
<path d="M1602.51 447.642H1595.88V488.188H1602.51V447.642Z" fill="#FF0000"/>
<path d="M1590.91 445H1584V485.546H1590.91V445Z" fill="#FF0000"/>
</g>
<defs>
<clipPath id="clip0_3_2">
<rect width="1920" height="1080" fill="white"/>
</clipPath>
</defs>
</svg>
